<?xml version="1.0" encoding="utf-8"?>
<!-- Generator: Adobe Illustrator 16.2.0, SVG Export Plug-In . SVG Version: 6.00 Build 0)  -->
<!DOCTYPE svg PUBLIC "-//W3C//DTD SVG 1.1//EN" "http://www.w3.org/Graphics/SVG/1.1/DTD/svg11.dtd">
<svg version="1.1" id="Layer_1" xmlns="http://www.w3.org/2000/svg" xmlns:xlink="http://www.w3.org/1999/xlink" x="0px" y="0px"
	 width="391.795px" height="310.589px" viewBox="0 0 391.795 310.589" enable-background="new 0 0 391.795 310.589"
	 xml:space="preserve">
<g>
	<path fill="#FFFFFF" d="M275.932,155.296c0-12.944,10.496-23.44,23.445-23.44c12.938,0,23.436,10.496,23.436,23.44
		c0,12.942-10.497,23.437-23.436,23.437C286.428,178.733,275.932,168.238,275.932,155.296z"/>
	<path fill="#FFFFFF" d="M137.965,155.296c0-12.944,10.498-23.44,23.445-23.44c12.946,0,23.44,10.496,23.44,23.44
		c0,12.942-10.494,23.437-23.44,23.437C148.463,178.733,137.965,168.238,137.965,155.296z"/>
	<path fill="#FFFFFF" d="M68.997,155.296c0-12.944,10.481-23.44,23.43-23.44c12.947,0,23.443,10.496,23.443,23.44
		c0,12.942-10.496,23.437-23.443,23.437C79.478,178.733,68.997,168.238,68.997,155.296z"/>
	<path fill="#FFFFFF" d="M0,155.296c0-12.944,10.508-23.44,23.455-23.44c12.934,0,23.431,10.496,23.431,23.44
		c0,12.942-10.497,23.437-23.431,23.437C10.508,178.733,0,168.238,0,155.296z"/>
	<path fill="#FFFFFF" d="M344.917,155.296c0-12.944,10.495-23.44,23.438-23.44c12.947,0,23.441,10.496,23.441,23.44
		c0,12.942-10.494,23.437-23.441,23.437C355.412,178.733,344.917,168.238,344.917,155.296z"/>
	<path fill="#FFFFFF" d="M275.932,222.753c0-12.945,10.496-23.441,23.445-23.441c12.938,0,23.436,10.496,23.436,23.441
		c0,12.947-10.497,23.443-23.436,23.443C286.428,246.197,275.932,235.701,275.932,222.753z"/>
	<path fill="#FFFFFF" d="M275.932,90.492c0-12.947,10.496-23.455,23.445-23.455c12.938,0,23.436,10.508,23.436,23.455
		s-10.497,23.434-23.436,23.434C286.428,113.925,275.932,103.439,275.932,90.492z"/>
	<g>
		<path fill="#FFFFFF" d="M206.951,155.296c0-12.944,10.494-23.44,23.44-23.44c12.947,0,23.445,10.496,23.445,23.44
			c0,12.942-10.498,23.437-23.445,23.437C217.445,178.733,206.951,168.238,206.951,155.296z"/>
		<circle fill="#FFFFFF" cx="230.394" cy="287.147" r="23.443"/>
		<path fill="#FFFFFF" d="M206.951,221.218c0-12.939,10.494-23.437,23.44-23.437c12.947,0,23.445,10.497,23.445,23.437
			c0,12.947-10.498,23.443-23.445,23.443C217.445,244.662,206.951,234.166,206.951,221.218z"/>
		<path fill="#FFFFFF" d="M206.951,23.445C206.951,10.497,217.445,0,230.391,0c12.947,0,23.445,10.497,23.445,23.445
			c0,12.943-10.498,23.44-23.445,23.44C217.445,46.885,206.951,36.388,206.951,23.445z"/>
		<path fill="#FFFFFF" d="M206.951,89.375c0-12.948,10.494-23.452,23.44-23.452c12.947,0,23.445,10.504,23.445,23.452
			c0,12.943-10.498,23.43-23.445,23.43C217.445,112.805,206.951,102.319,206.951,89.375z"/>
	</g>
</g>
</svg>
