<?xml version="1.0" encoding="utf-8"?>
<!-- Generator: Adobe Illustrator 16.2.0, SVG Export Plug-In . SVG Version: 6.00 Build 0)  -->
<!DOCTYPE svg PUBLIC "-//W3C//DTD SVG 1.1//EN" "http://www.w3.org/Graphics/SVG/1.1/DTD/svg11.dtd">
<svg version="1.1" id="Layer_1" xmlns="http://www.w3.org/2000/svg" xmlns:xlink="http://www.w3.org/1999/xlink" x="0px" y="0px"
	 width="391.795px" height="310.589px" viewBox="0 0 391.795 310.589" enable-background="new 0 0 391.795 310.589"
	 xml:space="preserve">
<g>
	<path fill="#FFFFFF" d="M115.864,155.293c0,12.944-10.497,23.44-23.445,23.44c-12.939,0-23.436-10.496-23.436-23.44
		c0-12.942,10.497-23.437,23.436-23.437C105.367,131.856,115.864,142.351,115.864,155.293z"/>
	<path fill="#FFFFFF" d="M253.831,155.293c0,12.944-10.498,23.44-23.445,23.44c-12.946,0-23.44-10.496-23.44-23.44
		c0-12.942,10.494-23.437,23.44-23.437C243.333,131.856,253.831,142.351,253.831,155.293z"/>
	<path fill="#FFFFFF" d="M322.799,155.293c0,12.944-10.481,23.44-23.43,23.44c-12.947,0-23.443-10.496-23.443-23.44
		c0-12.942,10.496-23.437,23.443-23.437C312.318,131.856,322.799,142.351,322.799,155.293z"/>
	<path fill="#FFFFFF" d="M391.795,155.293c0,12.944-10.508,23.44-23.455,23.44c-12.934,0-23.431-10.496-23.431-23.44
		c0-12.942,10.497-23.437,23.431-23.437C381.288,131.856,391.795,142.351,391.795,155.293z"/>
	<path fill="#FFFFFF" d="M46.879,155.293c0,12.944-10.495,23.44-23.437,23.44C10.495,178.733,0,168.237,0,155.293
		c0-12.942,10.495-23.437,23.442-23.437C36.384,131.856,46.879,142.351,46.879,155.293z"/>
	<path fill="#FFFFFF" d="M115.864,87.835c0,12.945-10.497,23.442-23.445,23.442c-12.939,0-23.436-10.497-23.436-23.442
		c0-12.947,10.497-23.442,23.436-23.442C105.367,64.393,115.864,74.888,115.864,87.835z"/>
	<path fill="#FFFFFF" d="M115.864,220.097c0,12.947-10.497,23.455-23.445,23.455c-12.939,0-23.436-10.508-23.436-23.455
		s10.497-23.434,23.436-23.434C105.367,196.664,115.864,207.15,115.864,220.097z"/>
	<g>
		<path fill="#FFFFFF" d="M184.845,155.293c0,12.944-10.494,23.44-23.441,23.44c-12.946,0-23.445-10.496-23.445-23.44
			c0-12.942,10.499-23.437,23.445-23.437C174.351,131.856,184.845,142.351,184.845,155.293z"/>
		<circle fill="#FFFFFF" cx="161.402" cy="23.442" r="23.443"/>
		<path fill="#FFFFFF" d="M184.845,89.371c0,12.94-10.494,23.437-23.441,23.437c-12.946,0-23.445-10.497-23.445-23.437
			c0-12.948,10.499-23.443,23.445-23.443C174.351,65.928,184.845,76.423,184.845,89.371z"/>
		<path fill="#FFFFFF" d="M184.845,287.144c0,12.948-10.494,23.445-23.441,23.445c-12.946,0-23.445-10.497-23.445-23.445
			c0-12.943,10.499-23.44,23.445-23.44C174.351,263.704,184.845,274.201,184.845,287.144z"/>
		<path fill="#FFFFFF" d="M184.845,221.213c0,12.948-10.494,23.452-23.441,23.452c-12.946,0-23.445-10.504-23.445-23.452
			c0-12.943,10.499-23.43,23.445-23.43C174.351,197.784,184.845,208.27,184.845,221.213z"/>
	</g>
</g>
</svg>
